<svg xmlns="http://www.w3.org/2000/svg" viewBox="0 0 160 120" width="160" height="120"><rect width="160" height="120" fill="#f3f2ec"/><g fill="none" stroke="#1d2a3a" stroke-width="2" stroke-linejoin="round" stroke-linecap="round"><g transform="translate(4 14) scale(1)" stroke-width="2"><rect x="14" y="16" width="52" height="60" fill="#f3f2ec"/><rect x="10" y="8" width="60" height="8" fill="#1d2a3a"/><rect x="10" y="76" width="60" height="8" fill="#1d2a3a"/><path d="M26 34h28M26 46h28M26 58h18" stroke-width="1.5"/></g><g transform="translate(84 27) scale(0.85)" stroke-width="2.3529411764705883"><path d="M40 12v64M28 14v12q0 8 12 8q12 0 12-8V14M20 18v16q0 12 20 12q20 0 20-12V18M8 24v22q0 16 32 16q32 0 32-16V24M26 76h28" stroke="#b08a3e" stroke-width="3.5294117647058822"/></g><path d="M10 108h140" stroke="#7e8c7a"/></g></svg>
