<svg xmlns="http://www.w3.org/2000/svg" viewBox="0 0 160 120" width="160" height="120"><rect width="160" height="120" fill="#f3f2ec"/><g fill="none" stroke="#1d2a3a" stroke-width="2" stroke-linejoin="round" stroke-linecap="round"><g transform="translate(4 14) scale(1)" stroke-width="2"><path d="M8 54l52-26l10 14l-52 24z" fill="#1d2a3a"/><circle cx="30" cy="70" r="14" fill="#b08a3e"/><path d="M16 70h28M30 56v28M20 60l20 20M20 80l20-20" stroke-width="1.5"/><path d="M42 62l22 22h12" stroke-width="3"/></g><g transform="translate(84 27) scale(0.85)" stroke-width="2.3529411764705883"><path d="M12 84V30h12V18h12v12h12V18h12v12h12v54z" fill="#f3f2ec"/><path d="M30 84V62a10 10 0 0 1 20 0v22z" fill="#1d2a3a"/><path d="M24 40v10M56 40v10" stroke-width="3.5294117647058822"/></g><path d="M10 108h140" stroke="#7e8c7a"/></g></svg>
