<svg xmlns="http://www.w3.org/2000/svg" viewBox="0 0 160 120" width="160" height="120"><rect width="160" height="120" fill="#f3f2ec"/><g fill="none" stroke="#1d2a3a" stroke-width="2" stroke-linejoin="round" stroke-linecap="round"><path d="M0 110h160" stroke="#7e8c7a"/><path d="M50 110L66 66M82 110L66 66M66 110V66" stroke-width="2"/><g transform="rotate(-32 66 62)"><rect x="40" y="52" width="64" height="14" rx="3" fill="#b08a3e"/><rect x="96" y="49" width="14" height="20" rx="2" fill="#f3f2ec"/><path d="M60 52v14M80 52v14" stroke-width="1.5"/></g><circle cx="124" cy="30" r="18" fill="#8a2f2b"/><path d="M107 24q17 6 34 0M106 34q18 6 36 0" stroke="#b08a3e" stroke-width="2.5"/><circle cx="98" cy="56" r="2.6" fill="#f3f2ec" stroke-width="1.5"/><circle cx="108" cy="64" r="2.6" fill="#f3f2ec" stroke-width="1.5"/><circle cx="142" cy="60" r="2.6" fill="#f3f2ec" stroke-width="1.5"/><circle cx="150" cy="50" r="2.6" fill="#f3f2ec" stroke-width="1.5"/><path d="M22.0 22.0L23.0 24.6L25.8 24.8L23.6 26.5L24.4 29.2L22.0 27.7L19.6 29.2L20.4 26.5L18.2 24.8L21.0 24.6z" fill="#b08a3e" stroke-width="1"/><path d="M42.0 9.0L42.7 11.0L44.9 11.1L43.2 12.4L43.8 14.4L42.0 13.3L40.2 14.4L40.8 12.4L39.1 11.1L41.3 11.0z" fill="#b08a3e" stroke-width="1"/><path d="M30.0 47.0L30.7 49.0L32.9 49.1L31.2 50.4L31.8 52.4L30.0 51.3L28.2 52.4L28.8 50.4L27.1 49.1L29.3 49.0z" fill="#b08a3e" stroke-width="1"/></g></svg>