<svg xmlns="http://www.w3.org/2000/svg" viewBox="0 0 160 120" width="160" height="120"><rect width="160" height="120" fill="#f3f2ec"/><g fill="none" stroke="#1d2a3a" stroke-width="2" stroke-linejoin="round" stroke-linecap="round"><g transform="translate(4 14) scale(1)" stroke-width="2"><path d="M40 84V42M34 84V50M46 84V50" stroke="#7e8c7a" stroke-width="3"/><path d="M40 42q-20-22-30 0M40 36q0-34 12-30M44 42q20-24 30-2" stroke="#7e8c7a"/><path d="M18 84q22-12 44 0" fill="#b08a3e"/></g><g transform="translate(84 27) scale(0.85)" stroke-width="2.3529411764705883"><path d="M4 68l16-44l16 44zM34 60L54 6l20 54z" fill="#7e8c7a"/><path d="M20 68v16M54 60v24" stroke-width="3.5294117647058822"/></g><path d="M10 108h140" stroke="#7e8c7a"/></g></svg>
