<svg xmlns="http://www.w3.org/2000/svg" viewBox="0 0 160 120" width="160" height="120"><rect width="160" height="120" fill="#f3f2ec"/><g fill="none" stroke="#1d2a3a" stroke-width="2" stroke-linejoin="round" stroke-linecap="round"><path d="M0 110h160" stroke="#7e8c7a"/><path d="M100 110V82h42v28z" fill="#b08a3e"/><path d="M96 82h50" stroke-width="3"/><path d="M114 72q-8-8 0-18q2 8 8 10q6 4 0 8z" fill="#8a2f2b"/><g transform="translate(58 38) rotate(18)"><circle r="7" fill="#f3f2ec"/><path d="M-7 8h14l-2 24h-10z" fill="#f3f2ec"/><path d="M-7 10l-16 10l-8-10M7 10l14-8l8 8M-4 32l-18 12l-10 16M4 32l18 8l12-10"/></g><path d="M26 26q18-14 40-6" stroke="#7e8c7a"/><g fill="#7e8c7a"><ellipse cx="34" cy="19" rx="6" ry="3" transform="rotate(-32 34 19)"/><ellipse cx="49" cy="15" rx="6" ry="3" transform="rotate(-12 49 15)"/><ellipse cx="62" cy="19" rx="6" ry="3" transform="rotate(24 62 19)"/></g></g></svg>
