<svg xmlns="http://www.w3.org/2000/svg" viewBox="0 0 160 120" width="160" height="120"><rect width="160" height="120" fill="#f3f2ec"/><g fill="none" stroke="#1d2a3a" stroke-width="2" stroke-linejoin="round" stroke-linecap="round"><g transform="translate(4 14) scale(1)" stroke-width="2"><path d="M14 84L36 42l22 42M36 42v42"/><g transform="rotate(-28 40 36)"><rect x="10" y="26" width="62" height="14" rx="2" fill="#b08a3e"/><rect x="64" y="23" width="12" height="20" rx="2" fill="#f3f2ec"/><path d="M28 26v14M46 26v14" stroke-width="1.5"/></g></g><g transform="translate(84 27) scale(0.85)" stroke-width="2.3529411764705883"><circle cx="40" cy="44" r="22" fill="#b08a3e"/><path d="M40 12V2M40 76v10M8 44H0M72 44h8M16 20l-6-6M64 68l6 6M16 68l-6 6M64 20l6-6" stroke="#b08a3e"/></g><path d="M10 108h140" stroke="#7e8c7a"/></g></svg>
